<?xml version="1.0" encoding="UTF-8" standalone="no"?>
<!-- Generator: Adobe Illustrator 23.0.3, SVG Export Plug-In . SVG Version: 6.00 Build 0)  -->

<svg
   version="1.1"
   id="svg2"
   inkscape:version="1.4 (86a8ad7, 2024-10-11)"
   sodipodi:docname="notflix.svg"
   x="0px"
   y="0px"
   viewBox="0 0 1000 268.7"
   style="enable-background:new 0 0 1000 268.7;"
   xml:space="preserve"
   xmlns:inkscape="http://www.inkscape.org/namespaces/inkscape"
   xmlns:sodipodi="http://sodipodi.sourceforge.net/DTD/sodipodi-0.dtd"
   xmlns="http://www.w3.org/2000/svg"
   xmlns:svg="http://www.w3.org/2000/svg"><defs
   id="defs6" /><sodipodi:namedview
   id="namedview6"
   pagecolor="#ffffff"
   bordercolor="#000000"
   borderopacity="0.25"
   inkscape:showpageshadow="2"
   inkscape:pageopacity="0.0"
   inkscape:pagecheckerboard="0"
   inkscape:deskcolor="#d1d1d1"
   inkscape:zoom="0.888"
   inkscape:cx="438.06306"
   inkscape:cy="163.85135"
   inkscape:window-width="1920"
   inkscape:window-height="1009"
   inkscape:window-x="-8"
   inkscape:window-y="-8"
   inkscape:window-maximized="1"
   inkscape:current-layer="g6" />
<style
   type="text/css"
   id="style1">
	.st0{fill:#DB202C;}
</style>
<g
   id="g6">
	<path
   class="st0"
   d="M94.9,152.1L40,0H0v268.7c14-2,28-3.9,42.1-5.7V116.8l48.8,140.1c15.3-1.8,30.7-3.5,46.1-5V0H94.9L94.9,152.1z   "
   id="path1"
   style="fill:#83def0;fill-opacity:1" />
	<path
   class="st0"
   d="m 177.5,248 c 38.8,-3.5 77.8,-6.4 117,-8.7 v -41.5 c -25,1.4 -50,3.2 -74.9,5.1 v -161 h 74.9 V 0 h -117 z"
   id="path2"
   sodipodi:nodetypes="ccccccccc"
   style="fill:#83def0;fill-opacity:1" /><path
   class="st0"
   d="M 294.72122,0.26233415 C 256.02594,4.7751741 253.65748,15.553084 253.81429,46.447214 l 4.20774,160.945016 37.60663,33.22063 z"
   id="path2-0"
   sodipodi:nodetypes="ccccc"
   style="fill:#83def0;fill-opacity:1" />
	<path
   class="st0"
   d="M321.4,41.9h44.1v194c14-0.5,28.1-1,42.1-1.3V41.9h44.1V0H321.4L321.4,41.9z"
   id="path3"
   style="fill:#83def0;fill-opacity:1" />
	<polygon
   class="st0"
   points="478.7,233.4 520.8,233.4 520.8,137.6 577.9,137.6 577.9,96.1 520.8,96.1 520.8,41.9 596.3,41.9    596.3,0 478.7,0  "
   id="polygon3"
   style="fill:#83def0;fill-opacity:1" />
	<path
   class="st0"
   d="M665.3,0h-42.1v235.5c38.3,1.3,76.4,3.2,114.3,5.8v-41.5c-24-1.6-48.1-3-72.2-4.1V0z"
   id="path4"
   style="fill:#83def0;fill-opacity:1" />
	<path
   class="st0"
   d="M772.3,243.8c14.1,1.1,28.1,2.2,42.1,3.5V0h-42.1V243.8z"
   id="path5"
   style="fill:#83def0;fill-opacity:1" />
	<path
   class="st0"
   d="M1000,0h-46.3l-30.5,70.7L895.9,0h-45.6l49,126.3l-53.5,123.9c14.8,1.4,29.5,3,44.3,4.6l31.1-72l30.8,79.4   c16,2.1,32,4.2,48,6.5l0.1,0l-54.8-141.5L1000,0z"
   id="path6"
   style="fill:#83def0;fill-opacity:1" />
</g>
</svg>
